# xmcd
#
# Track frame offsets:
# 150
# 16002
# 31377
# 44905
# 67340
#
# Disc length: 1137 seconds
#
#
# Revision: 0
# Processed by: cddbd v1.5.2PL0 Copyright (c) Steve Scherf et al.
# Submitted via: Nero 7, 11, 10, 0 
#
DISCID=43046f05
DTITLE=Dave Hannon - Solid Sinnin'
DYEAR=2005
DGENRE=Blues
TTITLE0=Big Bad Wolf
TTITLE1=Prissy Miss Sissy
TTITLE2=Down Jake
TTITLE3=Takin' Me For A Ride
TTITLE4=One Eyed Jack
EXTD=
EXTT0=Big Bad Wolf
EXTT1=Prissy Miss Sissy
EXTT2=Down Jake
EXTT3=Takin' Me For A Ride
EXTT4=One Eyed Jack
PLAYORDER=
